#!OML:ASF H:\ManfredObstacles\Project 1\Capture day 2\Session 1\male.ASF
:FULLY-SPECIFIED
:DEGREES
387
root 2.23368 15.6147 -17.571 -161.341 6.03833 179.818
lowerback 1.83516 5.51741 -1.50136
upperback 0.193316 7.33298 -1.96131
thorax -0.754085 3.6772 -1.35169
lowerneck -36.6742 -1.19565 0.66267
upperneck 33.8443 -3.27731 0.697056
head 19.0773 -1.26475 -0.704742
rclavicle 1.53064e-014 -1.19271e-015
rhumerus -34.3914 21.498 -98.7389
rradius 94.6584
rwrist 8.51288
rhand -11.7992 -2.29857
rfingers 7.12502
rthumb 14.2505 -31.7896
lclavicle 1.53064e-014 -1.19271e-015
lhumerus -73.9371 -30.5021 91.0805
lradius 99.0801
lwrist -16.9478
lhand -14.3827 7.58764
lfingers 7.12502
lthumb 11.76 37.2375
rfemur -3.44813 5.99726 24.8433
rtibia 30.7721
rfoot 6.78028 -14.1907
rtoes -37.5344
lfemur -55.4127 0.925501 -16.8512
ltibia 96.9299
lfoot 11.75 12.5189
ltoes -0.625862
388
root 2.23839 15.7336 -17.9646 -161.342 5.74784 179.613
lowerback 1.46441 5.87735 -1.63866
upperback -0.0841462 7.8159 -2.20732
thorax -0.81084 3.92074 -1.51495
lowerneck -36.5561 -1.59043 0.268678
upperneck 34.2114 -4.01568 1.38047
head 19.3 -1.49997 -0.509585
rclavicle 5.71506e-014 -1.15295e-014
rhumerus -34.7821 22.41 -98.9095
rradius 95.6687
rwrist 7.78449
rhand -11.3873 -2.40378
rfingers 7.12502
rthumb 14.6473 -31.8665
lclavicle 5.71506e-014 -1.15295e-014
lhumerus -75.2475 -31.2612 90.8519
lradius 100.205
lwrist -16.4782
lhand -14.4302 7.50955
lfingers 7.12502
lthumb 11.7143 37.162
rfemur -1.17592 5.87961 24.6221
rtibia 27.8554
rfoot 10.9548 -12.849
rtoes -36.8883
lfemur -56.5747 -0.133968 -16.7571
ltibia 94.501
lfoot 12.0797 13.1956
ltoes -0.632008
389
root 2.2439 15.8506 -18.3627 -161.321 5.41433 179.333
lowerback 1.04638 6.16959 -1.85375
upperback -0.354498 8.21443 -2.46804
thorax -0.842309 4.12439 -1.64079
lowerneck -36.4305 -1.94514 -0.0874185
upperneck 34.5289 -4.70269 2.02094
head 19.5049 -1.71749 -0.326056
rclavicle 1.77912e-014 -1.33186e-014
rhumerus -35.2586 23.325 -99.0802
rradius 96.627
rwrist 7.24837
rhand -10.9406 -2.45837
rfingers 7.12502
rthumb 15.0777 -31.8893
lclavicle 1.77912e-014 -1.33186e-014
lhumerus -76.484 -31.9707 90.6045
lradius 101.309
lwrist -16.1355
lhand -14.5224 7.44844
lfingers 7.12502
lthumb 11.6253 37.106
rfemur 1.03158 5.84352 24.3768
rtibia 24.9942
rfoot 15.3865 -11.9235
rtoes -35.6168
lfemur -57.5328 -1.21452 -16.7167
ltibia 91.7858
lfoot 12.4924 13.8027
ltoes -0.531778
390
root 2.25036 15.9654 -18.7642 -161.296 5.06398 178.988
lowerback 0.603503 6.40414 -2.13468
upperback -0.604497 8.54353 -2.74573
thorax -0.846548 4.29591 -1.74041
lowerneck -36.3374 -2.27174 -0.432927
upperneck 34.8307 -5.35011 2.63762
head 19.7206 -1.92179 -0.144376
rclavicle 7.0817e-014 1.78906e-015
rhumerus -35.7834 24.2205 -99.2503
rradius 97.539
rwrist 6.95943
rhand -10.4623 -2.43812
rfingers 7.12502
rthumb 15.5384 -31.8338
lclavicle 7.0817e-014 1.78906e-015
lhumerus -77.6202 -32.6655 90.3445
lradius 102.376
lwrist -15.8818
lhand -14.7084 7.39284
lfingers 7.12502
lthumb 11.4459 37.0604
rfemur 3.17388 5.9294 24.1288
rtibia 22.2623
rfoot 19.9917 -11.4524
rtoes -33.4364
lfemur -58.2628 -2.27738 -16.7308
ltibia 88.8014
lfoot 12.9045 14.299
ltoes -0.344691
391
root 2.25756 16.0769 -19.1674 -161.272 4.69391 178.615
lowerback 0.162876 6.59214 -2.43898
upperback -0.827421 8.81776 -3.02251
thorax -0.828744 4.44195 -1.8221
lowerneck -36.29 -2.57586 -0.759517
upperneck 35.1095 -5.94721 3.19049
head 19.9412 -2.11291 0.0173954
rclavicle 5.31749e-014 -2.78299e-014
rhumerus -36.3291 25.0731 -99.3961
rradius 98.4301
rwrist 6.82318
rhand -9.92345 -2.35958
rfingers 7.12502
rthumb 16.0574 -31.7142
lclavicle 5.31749e-014 -2.78299e-014
lhumerus -78.6356 -33.3448 90.105
lradius 103.403
lwrist -15.7287
lhand -14.9709 7.35644
lfingers 7.12502
lthumb 11.1928 37.0379
rfemur 5.21255 6.1167 23.9279
rtibia 19.7629
rfoot 24.5529 -11.4202
rtoes -30.3648
lfemur -58.7645 -3.29217 -16.7702
ltibia 85.5723
lfoot 13.2487 14.617
ltoes -0.167261
392
root 2.26526 16.1841 -19.5704 -161.232 4.31239 178.259
lowerback -0.28198 6.74111 -2.72489
upperback -1.0277 9.04686 -3.28994
thorax -0.784912 4.56658 -1.89958
lowerneck -36.2724 -2.86237 -1.07464
upperneck 35.3625 -6.49744 3.68648
head 20.1594 -2.29229 0.162871
rclavicle -2.38293e-014 2.5842e-014
rhumerus -36.8804 25.886 -99.5276
rradius 99.2938
rwrist 6.83373
rhand -9.38187 -2.20324
rfingers 7.12502
rthumb 16.5788 -31.5151
lclavicle -2.38293e-014 2.5842e-014
lhumerus -79.5203 -34.0054 89.9054
lradius 104.387
lwrist -15.6264
lhand -15.3011 7.34419
lfingers 7.12502
lthumb 10.8744 37.0426
rfemur 7.07528 6.35655 23.8121
rtibia 17.6117
rfoot 28.3764 -11.831
rtoes -27.837
lfemur -59.0728 -4.22046 -16.802
ltibia 82.1271
lfoot 13.461 14.7082
ltoes -0.0710626
393
root 2.27356 16.2862 -19.9719 -161.182 3.92505 177.945
lowerback -0.706411 6.86961 -2.96834
upperback -1.19566 9.2529 -3.53716
thorax -0.716377 4.67979 -1.97745
lowerneck -36.2993 -3.16367 -1.43068
upperneck 35.5989 -7.03182 4.15799
head 20.3887 -2.47312 0.308156
rclavicle 1.09381e-013 -4.81059e-014
rhumerus -37.405 26.6295 -99.6114
rradius 100.136
rwrist 6.92163
rhand -8.85138 -1.97763
rfingers 7.12502
rthumb 17.0895 -31.246
lclavicle 1.09381e-013 -4.81059e-014
lhumerus -80.2332 -34.6745 89.7629
lradius 105.314
lwrist -15.6122
lhand -15.6539 7.39025
lfingers 7.12502
lthumb 10.534 37.1063
rfemur 8.69237 6.54087 23.7872
rtibia 15.9519
rfoot 31.7573 -12.6219
rtoes -24.9431
lfemur -59.1857 -5.04448 -16.8058
ltibia 78.4875
lfoot 13.4753 14.5757
ltoes -0.0446753
394
root 2.28199 16.3807 -20.3715 -161.115 3.52487 177.699
lowerback -1.12996 6.97457 -3.1518
upperback -1.35078 9.43026 -3.75577
thorax -0.630815 4.77822 -2.05558
lowerneck -36.3176 -3.45741 -1.7803
upperneck 35.8052 -7.52918 4.57377
head 20.6008 -2.64756 0.435608
rclavicle 3.23025e-015 -1.799e-014
rhumerus -37.9549 27.3075 -99.6938
rradius 100.968
rwrist 7.01717
rhand -8.36688 -1.71163
rfingers 7.12502
rthumb 17.5558 -30.939
lclavicle 3.23025e-015 -1.799e-014
lhumerus -80.8062 -35.3261 89.7052
lradius 106.199
lwrist -15.5779
lhand -16.0014 7.50245
lfingers 7.12502
lthumb 10.1988 37.2352
rfemur 9.99282 6.56091 23.8466
rtibia 14.912
rfoot 34.324 -13.7175
rtoes -22.3828
lfemur -59.1243 -5.75888 -16.7735
ltibia 74.692
lfoot 13.2919 14.2257
ltoes -0.10946
395
root 2.29075 16.4656 -20.768 -161.041 3.11078 177.541
lowerback -1.52183 7.06688 -3.26349
upperback -1.48599 9.58903 -3.93459
thorax -0.537723 4.86593 -2.13272
lowerneck -36.377 -3.75661 -2.12404
upperneck 35.964 -7.99326 4.92535
head 20.7938 -2.81535 0.53961
rclavicle 3.52905e-014 -1.39646e-014
rhumerus -38.5024 27.8959 -99.7571
rradius 101.765
rwrist 7.128
rhand -7.96856 -1.39732
rfingers 7.12502
rthumb 17.9391 -30.59
lclavicle 3.52905e-014 -1.39646e-014
lhumerus -81.2098 -35.9613 89.7319
lradius 107.022
lwrist -15.6199
lhand -16.3302 7.66599
lfingers 7.12502
lthumb 9.88161 37.4141
rfemur 10.9443 6.38246 23.9987
rtibia 14.5714
rfoot 36.0709 -14.9394
rtoes -19.9952
lfemur -58.895 -6.36562 -16.6865
ltibia 70.7782
lfoot 12.919 13.6818
ltoes -0.297439
396
root 2.29943 16.5387 -21.1611 -160.985 2.67726 177.471
lowerback -1.87487 7.13681 -3.31462
upperback -1.59847 9.7132 -4.0594
thorax -0.442536 4.93431 -2.1899
lowerneck -36.4412 -4.04352 -2.46001
upperneck 36.0853 -8.40702 5.22443
head 20.9624 -2.97002 0.630161
rclavicle -4.87659e-014 2.46617e-014
rhumerus -39.07 28.419 -99.8201
rradius 102.51
rwrist 7.19959
rhand -7.6696 -1.07201
rfingers 7.12502
rthumb 18.2267 -30.2381
lclavicle -4.87659e-014 2.46617e-014
lhumerus -81.4499 -36.5438 89.8495
lradius 107.771
lwrist -15.6937
lhand -16.6616 7.84307
lfingers 7.12502
lthumb 9.5619 37.6061
rfemur 11.5693 6.01364 24.236
rtibia 14.9384
rfoot 37.0289 -16.0624
rtoes -17.6065
lfemur -58.4884 -6.88912 -16.5555
ltibia 66.7967
lfoot 12.3895 13.007
ltoes -0.622833
397
root 2.30804 16.5982 -21.5503 -160.981 2.20634 177.511
lowerback -2.14793 7.18338 -3.28377
upperback -1.68769 9.79537 -4.11339
thorax -0.367169 4.97867 -2.22789
lowerneck -36.5072 -4.30741 -2.76122
upperneck 36.1705 -8.75819 5.44832
head 21.0995 -3.10667 0.694451
rclavicle -5.58026e-014 5.20567e-014
rhumerus -39.6837 28.8572 -99.9052
rradius 103.178
rwrist 7.24223
rhand -7.46139 -0.747871
rfingers 7.12502
rthumb 18.427 -29.8951
lclavicle -5.58026e-014 5.20567e-014
lhumerus -81.545 -37.0608 90.0626
lradius 108.441
lwrist -15.7983
lhand -16.9715 8.01376
lfingers 7.12502
lthumb 9.26285 37.7903
rfemur 11.9352 5.50944 24.5987
rtibia 15.9456
rfoot 37.2109 -16.938
rtoes -15.3707
lfemur -57.8981 -7.3462 -16.3611
ltibia 62.8112
lfoot 11.7257 12.2546
ltoes -1.16701
398
root 2.31605 16.6433 -21.9356 -161.065 1.7142 177.636
lowerback -2.31373 7.21344 -3.18643
upperback -1.74647 9.84266 -4.1028
thorax -0.320758 5.00257 -2.24863
lowerneck -36.5876 -4.55058 -3.04001
upperneck 36.2405 -9.05555 5.61508
head 21.2227 -3.22746 0.740937
rclavicle -7.99611e-014 -3.20043e-014
rhumerus -40.3565 29.1798 -100.019
rradius 103.751
rwrist 7.25226
rhand -7.32799 -0.456004
rfingers 7.12502
rthumb 18.5554 -29.591
lclavicle -7.99611e-014 -3.20043e-014
lhumerus -81.495 -37.5155 90.3662
lradius 109.025
lwrist -15.9249
lhand -17.257 8.13547
lfingers 7.12502
lthumb 8.98738 37.924
rfemur 12.1116 4.93508 25.0581
rtibia 17.4979
rfoot 36.6616 -17.5947
rtoes -13.6114
lfemur -57.1087 -7.75931 -16.1385
ltibia 58.8897
lfoot 10.9451 11.4714
ltoes -1.88011
399
root 2.32295 16.6739 -22.3177 -161.27 1.20124 177.839
lowerback -2.35194 7.22399 -3.02115
upperback -1.76423 9.84956 -4.02401
thorax -0.304235 5.00287 -2.25176
lowerneck -36.6387 -4.75874 -3.2925
upperneck 36.304 -9.29004 5.73308
head 21.3249 -3.32983 0.776055
rclavicle 1.06064e-013 3.8266e-015
rhumerus -41.0853 29.3781 -100.151
rradius 104.206
rwrist 7.22613
rhand -7.23175 -0.210966
rfingers 7.12502
rthumb 18.6479 -29.3371
lclavicle 1.06064e-013 3.8266e-015
lhumerus -81.3112 -37.8972 90.7582
lradius 109.54
lwrist -16.0035
lhand -17.5097 8.20365
lfingers 7.12502
lthumb 8.7435 38.0026
rfemur 12.1595 4.31566 25.6017
rtibia 19.5125
rfoot 35.756 -17.9593
rtoes -11.9041
lfemur -56.1113 -8.14925 -15.9042
ltibia 55.1098
lfoot 10.0332 10.752
ltoes -2.74693
400
root 2.32851 16.6907 -22.6977 -161.582 0.678306 178.091
lowerback -2.31034 7.20925 -2.80784
upperback -1.72997 9.81389 -3.89262
thorax -0.280486 4.97903 -2.23489
lowerneck -36.695 -4.93968 -3.52309
upperneck 36.3513 -9.47236 5.81686
head 21.4101 -3.41441 0.804814
rclavicle -3.18055e-014 5.81445e-015
rhumerus -41.844 29.4622 -100.293
rradius 104.524
rwrist 7.13744
rhand -7.17823 -0.0401068
rfingers 7.12502
rthumb 18.6994 -29.1613
lclavicle -3.18055e-014 5.81445e-015
lhumerus -80.9711 -38.1935 91.1972
lradius 109.982
lwrist -16.0604
lhand -17.7297 8.19978
lfingers 7.12502
lthumb 8.53119 38.0074
rfemur 12.0789 3.67681 26.1877
rtibia 21.9214
rfoot 34.1776 -18.1614
rtoes -11.9257
lfemur -54.9491 -8.52443 -15.6884
ltibia 51.5463
lfoot 9.02106 10.1302
ltoes -3.72428
